<svg xmlns="http://www.w3.org/2000/svg" xml:space="preserve" width="7.11111in" height="7.11111in" version="1.1" style="shape-rendering:geometricPrecision; text-rendering:geometricPrecision; image-rendering:optimizeQuality; fill-rule:evenodd; clip-rule:evenodd" viewBox="0 0 7111 7111" xmlns:xlink="http://www.w3.org/1999/xlink">
 <defs>
  <style type="text/css">
   
    .fil0 {fill:black}
   
  </style>
 </defs>
 <g id="Layer_x0020_1">
  <metadata id="CorelCorpID_0Corel-Layer"></metadata>
  <path class="fil0" d="M1739 5084l-439 -255 -5 590c0,43 -42,104 -86,104 -17,0 -35,-6 -52,-12l-386 -224c-34,-18 -52,-52 -52,-87l0 -707 -483 -278 0 1751 1503 868 0 -1750zm2338 -2625l0 -590 -426 246 0 1753 1503 -867 0 -1749 -490 279 0 704c0,72 -68,96 -121,126l-310 178c-71,40 -156,1 -156,-80zm201 -702l0 529 190 -109 0 -533 -190 113zm-288 -63l-1441 -899 -498 288 695 397 807 467 437 -253zm-495 -1682c29,-17 69,-17 104,0l1710 985c29,17 52,51 52,86l0 1921 1664 958c29,18 52,52 52,87l0 1975c0,34 -17,69 -52,86l-1716 991c-6,3 -14,6 -23,8 -6,2 -13,3 -19,3l-1 0 -1 0 0 0c0,0 -1,0 -2,0l-2 0c-12,0 -24,-2 -35,-6 -5,-2 -10,-4 -15,-5l-1660 -956 -1657 956c-7,3 -17,6 -28,9 -7,1 -14,2 -21,2l-3 0 -2 0c-12,0 -24,-2 -35,-6 -5,-2 -10,-4 -14,-5l-1705 -991c-29,-17 -52,-52 -52,-86l0 -1975c0,-35 17,-69 52,-87l1647 -948 0 -1925c0,-35 17,-69 52,-87 570,-330 1140,-660 1710,-990zm-366 448l1441 898 474 -275 -1497 -864 -418 241zm-385 222l1436 896 185 -103 -1438 -898 -183 105zm699 3184l0 -1748 -800 -465 -703 -401 0 1749 136 78 1367 787zm2350 1559l0 -582 -426 248 0 1743 1503 -868 0 -1742 -484 276 6 695c0,74 -72,97 -127,126l-317 185c-64,43 -155,-3 -155,-81zm102 -882l186 -109 -1437 -896 -186 108 1437 897zm99 183l0 520 190 -109 0 -522 -190 111zm-288 -67l-1443 -899 -495 287 1501 865 437 -253zm-857 -1240l1446 901 470 -269 -1502 -872 -414 240zm310 3415l0 -1750 -1497 -866 0 1752 1497 864zm-4811 -2787l478 276 1439 -896 -426 -246 -1491 866zm2497 -286l-1438 897 441 254 1497 -861 -500 -290zm604 463l-1503 867 0 1743 1503 -868 0 -1742zm-802 -577l-183 -105 -1437 897 182 105 1438 -897zm-1536 1076l-190 -110 0 530 190 109 0 -529z" id="id_101" style="fill: rgb(28, 68, 142);"></path>
 </g>
</svg>